<svg version="1.0" xmlns="http://www.w3.org/2000/svg"  width="600.000000pt" height="600.000000pt" viewBox="0 0 600.000000 600.000000"  preserveAspectRatio="xMidYMid meet"> <g transform="translate(0.000000,600.000000) scale(0.100000,-0.100000)" fill="#000000" stroke="none"> <path d="M2667 5814 c-65 -7 -135 -18 -155 -24 -20 -5 -51 -10 -67 -10 -48 0 -307 -73 -502 -142 -401 -140 -805 -395 -1084 -685 -238 -246 -382 -442 -517 -703 -79 -151 -143 -308 -195 -480 -56 -185 -70 -253 -102 -490 -14 -95 -17 -446 -6 -535 45 -354 143 -676 295 -971 103 -199 176 -312 319 -495 156 -200 363 -398 569 -545 120 -85 358 -218 488 -274 41 -17 89 -37 105 -45 109 -49 310 -116 435 -145 52 -12 104 -24 115 -27 250 -62 727 -88 1005 -54 97 12 329 61 445 95 28 8 84 24 125 35 41 11 102 32 135 46 33 15 62 27 65 27 35 1 309 132 433 206 115 69 327 223 407 296 239 216 486 519 622 761 149 266 184 352 298 721 6 17 10 43 10 58 0 15 5 37 12 49 17 33 46 250 47 362 1 55 4 114 7 130 7 39 -14 307 -25 318 -5 5 -4 -16 1 -45 18 -101 12 -401 -11 -558 -23 -153 -24 -159 -42 -230 -6 -25 -16 -63 -21 -85 -13 -54 -87 -282 -103 -320 -7 -16 -22 -55 -34 -85 -99 -250 -310 -573 -538 -826 -92 -102 -296 -293 -344 -323 -14 -9 -64 -45 -111 -81 -144 -107 -332 -212 -523 -291 -38 -16 -73 -29 -77 -29 -4 0 -32 -11 -61 -24 -29 -14 -82 -34 -118 -45 -466 -141 -738 -176 -1159 -147 -241 16 -321 29 -580 93 -98 24 -312 95 -395 132 -11 5 -73 33 -138 62 -207 91 -429 227 -610 373 -117 94 -312 287 -377 372 -25 32 -70 90 -101 129 -156 196 -326 518 -418 790 -108 321 -136 493 -136 830 0 397 47 650 188 1010 48 123 171 362 239 465 140 212 352 456 550 631 133 117 410 301 593 393 231 115 641 253 823 276 40 5 77 12 81 14 21 13 312 36 458 36 266 -1 489 -28 774 -96 287 -68 396 -108 633 -232 66 -34 123 -62 126 -62 4 0 15 -9 25 -20 10 -11 22 -20 27 -20 10 0 9 1 210 -149 329 -244 606 -553 818 -911 76 -128 132 -233 149 -280 12 -32 21 -54 56 -135 7 -16 25 -75 40 -130 14 -55 30 -107 35 -117 5 -9 12 -39 16 -67 4 -28 10 -54 15 -57 15 -9 1 53 -60 266 -57 202 -103 307 -219 502 -119 200 -241 367 -420 573 -111 128 -405 374 -609 511 -168 113 -482 259 -648 303 -193 51 -447 103 -560 115 -27 3 -90 10 -140 16 -124 14 -446 10 -588 -6z"/> <path d="M2760 5790 c-154 -18 -255 -33 -278 -41 -13 -5 -37 -9 -53 -9 -46 0 -277 -63 -439 -120 -80 -28 -157 -55 -173 -60 -74 -23 -357 -177 -482 -261 -176 -119 -218 -150 -299 -223 -306 -274 -524 -554 -680 -871 -157 -319 -231 -560 -271 -884 -13 -105 -16 -188 -12 -390 4 -256 8 -289 53 -499 66 -308 232 -687 414 -947 262 -375 515 -615 873 -829 111 -67 346 -186 366 -186 4 0 30 -11 58 -24 172 -83 598 -195 823 -216 298 -28 363 -29 563 -14 108 8 218 19 245 24 240 47 478 114 662 185 497 192 929 522 1248 955 47 63 96 129 109 147 29 39 127 212 177 310 70 140 160 386 200 548 10 39 21 86 26 105 22 88 41 228 50 375 31 467 -74 946 -294 1345 -261 474 -578 818 -1045 1134 -122 82 -388 219 -511 262 -109 38 -437 121 -570 144 -258 45 -571 61 -760 40z m495 -25 c229 -25 277 -33 511 -90 329 -80 582 -190 847 -367 157 -104 305 -219 398 -308 20 -19 59 -57 88 -83 44 -42 160 -173 257 -294 148 -183 393 -623 442 -793 6 -19 26 -87 46 -150 60 -196 77 -316 83 -575 7 -279 -2 -365 -69 -660 -130 -575 -458 -1111 -933 -1526 -75 -65 -287 -217 -379 -272 -94 -55 -260 -137 -361 -177 -239 -95 -255 -100 -460 -151 -389 -96 -636 -112 -1070 -69 -116 12 -162 21 -390 76 -257 61 -559 181 -762 302 -40 23 -80 45 -90 49 -36 14 -241 159 -341 241 -195 160 -456 464 -587 683 -197 330 -338 714 -380 1031 -30 223 -17 671 24 886 11 57 77 294 90 327 14 32 65 169 66 175 3 16 142 288 182 355 171 286 479 625 738 811 263 189 501 314 779 409 273 94 488 143 726 166 63 6 117 13 120 16 6 6 351 -4 425 -12z"/> <path d="M2761 5289 c-318 -30 -736 -164 -956 -305 -503 -321 -844 -734 -1006 -1216 -90 -267 -127 -520 -114 -778 8 -163 23 -266 65 -425 55 -212 126 -379 249 -585 112 -186 362 -473 511 -584 30 -22 62 -47 70 -55 37 -36 247 -165 371 -228 105 -55 266 -121 309 -128 3 0 34 -10 70 -22 370 -123 877 -134 1260 -29 222 61 382 130 640 278 293 167 614 491 795 802 139 240 240 527 276 786 12 88 14 397 4 510 -21 214 -111 510 -227 739 -107 210 -237 383 -429 572 -444 438 -1047 683 -1664 678 -77 -1 -178 -5 -224 -10z m564 -39 c28 -6 77 -15 110 -20 120 -19 147 -27 325 -87 319 -107 654 -315 885 -549 226 -229 355 -416 480 -699 59 -133 135 -422 154 -580 14 -122 14 -362 1 -476 -29 -247 -130 -559 -247 -764 -143 -251 -378 -524 -582 -679 -79 -60 -204 -147 -221 -154 -8 -3 -42 -22 -75 -42 -33 -19 -96 -53 -140 -74 -44 -21 -88 -42 -98 -47 -53 -27 -231 -89 -342 -119 -194 -51 -308 -64 -575 -63 -222 0 -268 3 -357 21 -55 12 -110 22 -121 22 -40 0 -343 98 -456 147 -64 29 -173 85 -281 147 -35 20 -202 134 -216 148 -8 7 -43 36 -79 65 -58 45 -129 116 -253 250 -20 23 -67 81 -103 130 -283 379 -424 795 -425 1257 0 188 12 294 53 466 69 287 155 481 321 725 103 152 273 339 400 442 40 32 74 61 77 64 3 4 55 40 117 82 61 41 110 78 107 81 -2 3 -1 4 2 1 4 -2 19 2 35 11 32 16 39 27 12 17 -10 -3 -15 -3 -11 2 4 4 18 9 30 10 40 4 41 5 35 12 -8 7 42 43 58 43 6 -1 -2 -8 -17 -16 -16 -8 -28 -17 -28 -19 0 -3 33 12 74 32 41 20 72 41 69 46 -4 6 -1 7 6 3 7 -5 26 -2 42 5 23 9 27 14 17 21 -9 7 -7 8 8 4 11 -4 64 9 120 28 153 53 319 92 499 116 81 11 528 4 590 -10z m-1335 -194 c0 -2 -7 -7 -16 -10 -8 -3 -12 -2 -9 4 6 10 25 14 25 6z"/> <path d="M2835 5103 c-267 -26 -520 -99 -788 -228 -310 -148 -623 -432 -840 -760 -117 -178 -240 -486 -273 -685 -4 -25 -8 -52 -10 -60 -37 -225 -21 -539 37 -745 37 -129 43 -150 66 -195 13 -25 23 -49 23 -55 0 -5 25 -52 55 -104 30 -51 55 -95 55 -97 0 -5 49 -73 115 -159 60 -80 253 -280 335 -350 106 -89 306 -223 447 -300 44 -23 54 -25 65 -14 33 33 140 221 184 323 16 37 18 38 30 21 8 -10 14 -15 14 -10 0 5 -7 17 -17 27 -9 10 -12 18 -6 18 12 0 33 44 33 70 0 11 2 20 4 20 2 0 32 -13 68 -29 160 -73 353 -111 563 -111 205 0 349 26 530 97 130 51 122 48 108 33 -10 -11 -7 -18 12 -36 16 -15 23 -29 18 -40 -4 -12 -3 -15 5 -10 7 4 12 2 12 -5 0 -21 70 -159 137 -272 l65 -108 96 52 c278 148 587 413 778 669 151 202 269 466 309 690 71 404 17 785 -164 1165 -105 220 -225 383 -425 581 -175 172 -342 289 -576 404 -178 86 -386 155 -535 176 -27 3 -59 8 -70 10 -107 20 -334 28 -460 17z m354 -33 c146 -18 163 -20 276 -46 279 -64 562 -197 800 -378 167 -126 372 -346 497 -531 302 -451 389 -1067 223 -1571 -56 -166 -166 -368 -285 -517 -79 -100 -257 -280 -365 -367 -144 -116 -403 -280 -443 -280 -10 0 -114 175 -178 300 -27 52 -52 97 -56 98 -5 2 -8 14 -8 26 0 34 -23 58 -51 54 -16 -2 -25 -10 -27 -24 -4 -26 -87 -58 -258 -101 -100 -25 -126 -27 -309 -27 -228 -1 -295 9 -485 75 -158 55 -159 55 -165 33 -3 -11 -13 -32 -22 -49 -9 -16 -33 -65 -55 -108 -36 -72 -127 -225 -161 -271 -13 -18 -18 -17 -113 39 -305 179 -514 357 -711 605 -66 84 -204 303 -222 354 -2 6 -11 29 -21 51 -108 247 -149 632 -99 934 76 466 286 838 669 1186 246 223 611 405 955 476 221 46 442 60 614 39z m435 -3229 c3 -5 -5 -11 -19 -13 -28 -6 -35 8 -7 15 9 3 18 5 19 6 1 0 4 -3 7 -8z"/> <path d="M1859 4608 c-26 -30 -103 -199 -134 -297 -73 -224 -106 -529 -87 -784 7 -83 19 -181 27 -217 11 -50 13 -104 9 -235 -7 -177 5 -304 32 -356 9 -17 27 -31 51 -38 l38 -10 -35 3 c-19 2 -111 16 -205 30 -176 27 -422 44 -469 32 -38 -9 -54 -48 -33 -79 15 -23 23 -25 149 -31 236 -13 568 -59 568 -80 0 -4 -14 -6 -32 -2 -43 8 -456 8 -558 0 -64 -6 -86 -12 -101 -27 -23 -25 -24 -36 -4 -63 14 -21 19 -21 333 -16 176 3 331 2 345 -2 14 -3 34 -21 46 -41 18 -32 25 -35 65 -35 25 0 48 -4 51 -10 3 -5 0 -10 -7 -10 -193 -3 -560 -85 -633 -141 -29 -24 -32 -59 -7 -82 20 -18 67 -23 76 -8 3 4 20 12 38 16 47 11 48 11 108 30 30 9 71 21 90 26 65 16 288 49 337 49 45 0 52 -4 98 -51 28 -27 101 -88 163 -135 248 -188 511 -269 867 -269 143 1 172 4 270 29 118 31 253 79 332 119 87 44 216 139 304 224 81 78 89 83 130 83 104 0 382 -57 533 -110 73 -25 98 -25 119 -2 22 24 22 55 0 75 -54 47 -409 136 -557 138 -62 1 -140 13 -126 19 3 1 32 4 65 7 60 4 73 12 101 59 11 18 30 19 355 19 l344 0 13 28 c12 24 11 31 -1 51 -13 19 -27 24 -90 30 -94 8 -513 8 -569 0 -30 -5 -40 -3 -33 4 6 5 55 18 110 27 55 9 111 18 125 21 52 9 347 34 404 34 44 0 62 4 72 18 19 25 17 56 -6 77 -18 16 -34 17 -174 11 -199 -9 -491 -49 -615 -86 -33 -9 -51 -7 -39 5 3 3 30 10 59 14 77 13 105 26 126 58 16 24 18 54 19 283 1 204 4 269 18 325 12 50 19 133 23 285 6 224 -3 358 -33 491 -55 243 -170 519 -217 519 -27 0 -543 -525 -622 -632 l-20 -27 -70 19 c-231 65 -521 66 -775 1 -41 -10 -78 -17 -83 -14 -4 2 -25 28 -46 57 -79 106 -573 596 -601 596 -6 0 -20 -10 -31 -22z m246 -206 c228 -226 346 -350 392 -415 l32 -45 96 24 c54 13 116 25 139 28 160 20 260 26 316 21 144 -14 319 -46 383 -70 9 -4 17 -3 17 2 0 4 10 19 23 33 12 14 31 39 41 55 28 43 547 565 563 565 14 0 54 -74 98 -180 97 -235 143 -515 131 -800 -7 -170 -10 -202 -37 -332 -16 -78 -18 -108 -10 -150 11 -58 8 -334 -4 -384 -6 -28 -12 -32 -63 -43 -32 -7 -88 -21 -127 -31 -38 -10 -98 -24 -133 -30 -34 -7 -65 -17 -68 -21 -3 -5 -14 -9 -24 -9 -45 0 -419 -136 -385 -140 6 -1 18 -3 27 -5 10 -2 20 1 23 5 3 5 12 7 20 4 13 -5 145 19 185 34 8 3 17 6 20 6 23 6 157 41 290 77 25 7 54 13 65 15 11 1 22 3 25 5 3 1 10 3 15 4 6 1 37 7 70 13 33 7 83 17 110 22 82 16 274 39 375 46 52 3 115 7 139 9 56 4 91 -9 91 -34 0 -25 -14 -30 -70 -24 -25 2 -117 -3 -205 -12 -216 -23 -211 -22 -285 -35 -36 -6 -81 -14 -100 -16 -61 -8 -173 -43 -189 -59 -28 -28 0 -34 124 -24 136 10 654 12 679 3 22 -9 20 -51 -3 -59 -10 -3 -38 -1 -62 4 -50 12 -572 15 -583 4 -4 -4 -15 -8 -24 -8 -9 0 -23 -14 -31 -31 -13 -31 -15 -32 -100 -38 -373 -28 -565 -56 -595 -86 -18 -18 21 -21 155 -10 226 19 518 24 595 10 38 -6 87 -14 109 -16 79 -10 347 -92 368 -113 15 -15 -1 -41 -24 -41 -13 0 -57 12 -98 26 -155 53 -341 91 -492 100 l-75 5 -89 -87 c-97 -93 -227 -186 -321 -229 -95 -43 -96 -44 -154 -64 -222 -80 -412 -98 -664 -62 -317 46 -581 178 -787 393 -31 32 -63 56 -70 54 -8 -3 -48 -7 -89 -11 -149 -11 -288 -41 -450 -96 -97 -33 -128 -36 -136 -14 -9 21 8 38 53 53 21 8 47 17 58 22 27 11 223 61 260 66 17 2 53 8 80 14 62 12 431 6 623 -10 99 -9 147 -9 154 -2 33 33 -212 74 -583 97 l-96 7 -16 34 c-10 21 -26 36 -43 40 -14 4 -172 5 -351 2 l-324 -5 3 21 c3 18 12 22 63 28 134 16 586 11 718 -8 32 -5 37 -3 37 15 0 11 -5 23 -11 27 -18 10 -181 54 -188 50 -4 -3 -33 2 -66 10 -33 8 -78 16 -100 19 -22 3 -53 7 -70 9 -16 2 -114 10 -217 17 -168 11 -187 14 -192 31 -7 28 25 36 129 31 97 -5 383 -37 468 -54 29 -5 68 -12 87 -15 57 -9 111 -21 175 -39 33 -9 96 -25 140 -36 44 -11 105 -27 135 -36 75 -21 177 -43 225 -48 22 -3 50 -7 62 -10 28 -6 39 11 16 23 -20 11 -249 90 -279 97 -11 2 -44 11 -74 20 -96 28 -284 77 -308 80 -13 2 -46 9 -72 15 -55 13 -53 7 -71 155 -10 86 -6 221 9 295 5 22 1 64 -10 115 -10 44 -21 114 -25 155 -8 79 -11 413 -4 490 9 96 52 305 80 390 44 131 121 290 140 290 9 0 106 -89 216 -198z m-100 -1777 c162 -42 230 -63 213 -64 -11 -1 -412 100 -417 105 -12 12 47 0 204 -41z m2085 15 c-20 -13 -33 -13 -25 0 3 6 14 10 23 10 15 0 15 -2 2 -10z m-45 -9 c-12 -10 -255 -74 -261 -68 -4 4 193 63 236 70 14 2 27 5 30 6 2 0 0 -3 -5 -8z m-1970 -292 c5 -5 -8 -9 -35 -9 -49 0 -90 9 -90 19 0 9 114 1 125 -10z m1935 1 c-38 -12 -99 -12 -80 0 8 5 35 9 60 9 37 -1 41 -2 20 -9z"/> <path d="M1896 4178 c-32 -51 -66 -338 -66 -561 l0 -151 103 103 c68 70 137 127 209 174 l107 71 -22 38 c-48 87 -276 348 -303 348 -7 0 -20 -10 -28 -22z m110 -88 c111 -122 204 -242 204 -264 0 -3 -42 -33 -92 -68 -51 -35 -130 -99 -175 -144 l-83 -81 0 163 c0 164 28 412 50 455 14 25 22 20 96 -61z"/> <path d="M3993 4126 c-138 -147 -243 -292 -228 -315 3 -5 26 -21 53 -37 82 -47 207 -150 281 -231 l71 -78 0 154 c0 152 -8 249 -36 430 -16 103 -31 144 -55 149 -9 2 -45 -29 -86 -72z m112 -30 c3 -22 12 -89 20 -147 8 -59 15 -175 15 -260 l0 -153 -55 57 c-67 68 -172 153 -242 197 l-53 32 17 31 c15 30 51 85 63 97 3 3 36 41 75 85 38 44 83 92 100 107 27 24 31 25 42 11 7 -9 15 -34 18 -57z"/> <path d="M2160 3156 c-87 -21 -107 -34 -80 -51 11 -7 70 -128 70 -145 0 -25 54 -109 97 -152 27 -26 75 -59 108 -75 56 -26 70 -28 208 -31 l147 -3 0 23 c-1 126 -54 252 -140 330 -76 69 -77 70 -135 95 -59 25 -188 29 -275 9z m298 -51 c118 -64 208 -194 219 -316 l6 -61 -139 4 c-122 3 -145 6 -184 27 -99 52 -159 120 -190 218 -7 21 -23 59 -37 86 -17 35 -20 49 -11 52 47 17 105 24 188 22 83 -2 101 -6 148 -32z"/> <path d="M3569 3146 c-71 -29 -123 -68 -171 -131 -21 -27 -42 -54 -46 -60 -20 -26 -52 -132 -58 -190 l-7 -65 142 0 c162 0 204 12 298 83 60 45 101 106 144 215 17 43 37 88 46 101 8 13 11 27 6 31 -45 43 -264 53 -354 16z m294 -21 c16 -4 26 -13 23 -19 -2 -6 -20 -51 -40 -100 -43 -109 -72 -153 -130 -201 -75 -61 -126 -75 -277 -75 l-130 0 7 48 c15 100 60 185 136 258 86 83 171 112 296 103 48 -4 100 -10 115 -14z"/> <path d="M2060 2481 c0 -11 -2 -26 -6 -34 -4 -11 7 -15 48 -20 124 -14 226 -28 273 -38 28 -6 75 -9 105 -7 l55 3 -70 22 c-91 28 -365 93 -392 93 -7 0 -13 -9 -13 -19z m55 -21 c8 -13 -5 -13 -25 0 -13 8 -13 10 2 10 9 0 20 -4 23 -10z"/> <path d="M3835 2483 c-33 -7 -98 -23 -145 -34 -93 -21 -186 -52 -198 -64 -10 -10 123 1 233 19 50 9 121 19 158 22 53 6 67 10 62 21 -3 8 -5 23 -5 34 0 22 -17 23 -105 2z m75 -17 c0 -2 -7 -7 -16 -10 -8 -3 -12 -2 -9 4 6 10 25 14 25 6z"/> <path d="M2877 2446 c-26 -7 -50 -16 -53 -19 -3 -3 18 -36 48 -74 66 -82 78 -104 78 -138 0 -38 -15 -60 -57 -86 -33 -21 -51 -24 -140 -24 -57 0 -103 -3 -103 -7 0 -3 25 -18 55 -33 78 -36 165 -34 246 8 l57 29 29 -22 c65 -47 178 -53 256 -13 l52 28 -95 6 c-142 10 -189 36 -197 110 -4 42 -2 48 60 124 49 60 62 83 54 91 -34 32 -201 44 -290 20z m222 -25 c14 -4 26 -11 28 -17 2 -6 -19 -38 -47 -73 -45 -56 -50 -67 -50 -111 0 -77 52 -127 150 -143 14 -2 4 -5 -21 -6 -34 -1 -62 7 -103 28 l-56 30 -49 -25 c-27 -14 -68 -28 -92 -30 l-44 -4 46 15 c68 22 109 72 109 132 0 39 -7 54 -50 112 -28 36 -52 70 -53 76 -1 5 12 13 28 16 40 9 174 9 204 0z"/> <path d="M2380 1785 c7 -8 8 -15 3 -15 -5 0 -10 -7 -10 -16 0 -14 2 -14 14 2 8 11 22 18 31 16 10 -1 7 4 -8 12 -32 20 -46 20 -30 1z"/> <path d="M3600 1787 c0 -10 8 -17 18 -17 9 0 13 4 7 8 -5 4 -13 11 -17 16 -5 5 -8 2 -8 -7z"/> <path d="M3525 1750 c3 -5 8 -10 11 -10 2 0 4 5 4 10 0 6 -5 10 -11 10 -5 0 -7 -4 -4 -10z"/> <path d="M3476 1741 c-4 -5 3 -7 14 -4 23 6 26 13 6 13 -8 0 -17 -4 -20 -9z"/> <path d="M4694 1320 c-56 -21 -54 -70 4 -99 76 -39 118 -102 129 -191 8 -69 23 -87 59 -75 87 31 61 189 -48 298 -55 54 -109 79 -144 67z m88 -49 c76 -48 128 -141 128 -227 0 -33 -5 -46 -22 -58 -27 -19 -34 -10 -36 45 -4 81 -55 163 -130 206 -62 35 -60 33 -38 49 28 20 46 18 98 -15z"/> <path d="M4532 1207 c-34 -36 -30 -117 8 -192 35 -68 51 -88 104 -126 54 -40 115 -39 137 2 14 27 -4 55 -50 79 -70 35 -121 118 -121 197 0 29 -25 63 -47 63 -5 0 -19 -10 -31 -23z m50 -25 c-2 -11 4 -45 13 -76 23 -78 63 -127 139 -167 l39 -21 -21 -21 c-21 -20 -22 -20 -60 -3 -85 39 -149 128 -159 221 -5 45 -2 59 12 75 22 25 41 21 37 -8z"/> <path d="M1455 1131 c-40 -24 -61 -49 -80 -94 -36 -87 -7 -191 65 -227 88 -45 183 -12 230 80 40 81 33 154 -22 207 -58 55 -136 69 -193 34z m126 -15 c69 -29 106 -100 88 -169 -27 -108 -138 -160 -226 -106 -63 39 -79 109 -44 191 36 85 105 116 182 84z"/> <path d="M1486 1035 c-44 -47 -37 -116 14 -142 28 -14 50 -5 74 32 28 43 30 77 6 108 -27 34 -63 35 -94 2z m72 -17 c22 -22 5 -91 -25 -102 -47 -18 -71 51 -33 92 23 25 40 28 58 10z"/> <path d="M4311 1052 c-98 -56 -114 -80 -84 -120 20 -26 38 -30 78 -17 17 5 28 -7 68 -69 27 -41 55 -80 63 -87 20 -17 63 -2 76 27 13 27 6 44 -57 144 -34 54 -34 54 -15 75 22 24 25 47 10 76 -16 30 -48 23 -139 -29z m124 7 c5 -16 0 -27 -21 -44 l-28 -22 24 -39 c13 -21 39 -61 57 -88 39 -58 41 -69 9 -84 -23 -10 -27 -6 -75 66 -83 127 -71 117 -109 95 -32 -17 -33 -17 -47 0 -7 11 -12 24 -9 30 5 13 161 104 181 106 6 1 15 -9 18 -20z"/> <path d="M1807 952 c-9 -10 -37 -75 -62 -146 -49 -139 -49 -157 2 -177 38 -14 51 -6 75 48 l20 48 14 -59 c8 -33 22 -68 30 -77 24 -27 69 -40 88 -26 16 13 106 254 106 285 0 27 -23 44 -62 45 -29 2 -34 -3 -53 -41 -21 -44 -35 -46 -35 -5 0 46 -28 93 -64 108 -43 18 -40 19 -59 -3z m67 -25 c17 -12 55 -145 56 -194 0 -13 5 -23 10 -23 6 0 10 7 10 16 0 19 40 135 50 147 7 9 60 -12 60 -23 0 -4 -20 -64 -45 -134 -25 -71 -45 -130 -45 -133 0 -7 -53 7 -66 18 -9 7 -18 41 -51 199 -4 20 -11 7 -33 -60 -26 -81 -29 -85 -55 -83 -16 1 -32 6 -36 10 -7 7 36 137 82 251 10 25 36 29 63 9z"/> <path d="M3995 901 c-23 -10 -49 -30 -58 -44 -39 -59 -6 -151 57 -162 34 -7 35 -8 20 -30 -26 -39 -15 -68 32 -84 38 -13 46 -13 89 3 57 22 85 63 85 124 0 35 -6 49 -29 73 -18 17 -40 29 -56 29 -22 0 -24 3 -15 19 16 31 12 59 -12 75 -29 21 -64 20 -113 -3z m115 -26 c0 -33 -18 -53 -45 -47 -16 3 -33 -2 -45 -13 -35 -32 -24 -38 53 -31 68 7 74 6 100 -18 39 -36 38 -92 -3 -131 -26 -25 -39 -29 -85 -29 -61 0 -69 4 -60 33 5 16 15 21 44 21 25 0 44 7 56 20 17 19 17 22 3 37 -14 13 -23 14 -63 4 -34 -9 -51 -9 -68 0 -68 36 -78 89 -24 136 26 23 44 30 85 32 42 2 52 -1 52 -14z m-13 -181 c-3 -3 -12 -4 -19 -1 -8 3 -5 6 6 6 11 1 17 -2 13 -5z"/> <path d="M3696 797 c-96 -31 -98 -37 -47 -188 57 -169 62 -174 168 -143 88 25 117 70 73 114 -16 16 -24 18 -47 9 -23 -8 -26 -8 -15 2 6 7 12 30 12 51 0 31 -5 41 -24 49 -23 11 -23 12 -5 30 25 25 24 54 -1 79 -24 24 -27 24 -114 -3z m108 -23 c11 -28 6 -34 -40 -45 -43 -11 -71 -38 -46 -47 6 -2 8 -10 5 -19 -5 -13 -2 -15 18 -9 13 4 36 10 52 13 25 5 27 3 27 -26 0 -24 -4 -31 -19 -31 -32 0 -51 -11 -51 -29 0 -33 18 -39 71 -24 56 17 57 16 61 -16 3 -20 -5 -25 -57 -42 -90 -28 -101 -26 -119 24 -52 142 -76 220 -70 227 8 7 115 37 140 39 12 0 25 -6 28 -15z"/> <path d="M2223 789 c-6 -8 -16 -32 -22 -54 -7 -22 -17 -49 -22 -60 -15 -33 -49 -137 -49 -152 0 -20 37 -53 60 -53 12 0 28 13 39 30 19 32 31 30 31 -4 0 -35 28 -66 59 -66 38 0 53 21 50 69 -3 33 1 43 23 61 15 11 34 40 43 64 16 43 16 47 -1 83 -14 27 -33 45 -67 62 -59 29 -128 39 -144 20z m107 -31 c19 -6 43 -17 53 -24 28 -18 48 -62 38 -82 -4 -9 -14 -30 -22 -47 -9 -18 -24 -31 -37 -33 -22 -3 -23 -7 -17 -57 7 -56 1 -67 -32 -59 -17 5 -23 17 -28 54 -4 28 -15 56 -26 66 -18 16 -19 16 -25 -2 -18 -58 -28 -74 -43 -74 -32 0 -41 14 -32 46 19 59 59 165 65 171 3 4 6 16 6 28 0 38 11 39 100 13z"/> <path d="M2272 670 c-10 -27 -9 -30 13 -36 35 -9 59 -1 63 20 5 22 -22 46 -49 46 -10 0 -21 -12 -27 -30z"/> <path d="M3432 729 c-32 -12 -34 -23 -18 -129 8 -54 11 -99 6 -104 -11 -11 -24 20 -45 109 -22 92 -30 105 -63 105 -38 0 -52 -17 -52 -64 0 -66 27 -187 47 -215 50 -69 140 -76 200 -16 27 27 33 40 33 77 0 57 -27 208 -40 223 -15 18 -42 23 -68 14z m66 -99 c23 -137 23 -164 -1 -194 -40 -49 -136 -44 -171 9 -17 26 -50 209 -42 231 3 9 15 14 28 12 23 -3 31 -26 52 -150 4 -20 15 -46 24 -59 16 -19 21 -20 41 -9 21 11 23 17 18 68 -3 32 -10 79 -16 106 -13 57 -8 68 27 64 25 -3 28 -8 40 -78z"/> <path d="M2591 713 c-14 -12 -26 -43 -37 -88 -8 -38 -22 -99 -30 -134 -15 -63 -15 -65 8 -87 32 -33 154 -51 180 -27 21 18 24 79 6 86 -10 3 -9 12 5 35 21 38 22 60 0 84 -15 17 -15 18 8 18 32 0 49 17 49 50 0 37 -26 56 -85 64 -27 4 -57 9 -66 12 -9 2 -26 -4 -38 -13z m119 -28 c14 -1 31 -3 38 -3 12 -2 17 -43 7 -54 -3 -3 -25 -2 -50 2 -47 7 -65 -2 -65 -31 0 -11 12 -20 36 -26 19 -4 35 -11 35 -15 -1 -5 -1 -17 -1 -27 0 -17 -7 -20 -47 -18 -45 2 -48 0 -51 -24 -3 -28 15 -39 71 -39 25 0 28 -3 25 -27 -3 -27 -4 -28 -61 -25 -32 2 -69 7 -83 12 -22 9 -24 13 -18 52 3 24 12 66 20 93 7 28 15 67 19 89 8 55 12 58 59 50 22 -4 52 -8 66 -9z"/> <path d="M2975 692 c-29 -10 -58 -33 -78 -62 -25 -37 -24 -174 3 -217 25 -42 71 -65 123 -62 23 1 59 -6 79 -15 20 -9 45 -13 55 -9 25 8 53 44 53 67 0 24 -28 56 -43 50 -9 -3 -12 19 -12 76 -1 85 -12 112 -66 152 -27 21 -84 30 -114 20z m94 -36 c47 -25 65 -63 64 -136 0 -36 -2 -74 -4 -85 -3 -17 1 -20 29 -17 37 2 44 -19 15 -50 -20 -22 -29 -22 -68 -2 -19 10 -42 13 -66 9 -42 -7 -93 13 -121 49 -21 25 -25 150 -7 190 23 49 103 70 158 42z"/> <path d="M2978 593 c-9 -11 -15 -39 -16 -70 0 -42 4 -55 24 -74 23 -21 36 -15 14 7 -8 8 -6 15 5 24 12 10 19 10 27 2 7 -7 17 -12 23 -12 16 0 12 105 -5 124 -17 21 -53 20 -72 -1z m60 -49 c3 -27 -1 -32 -22 -36 -24 -5 -26 -2 -26 27 0 36 7 47 30 43 9 -2 16 -16 18 -34z"/> <path d="M5927 3440 c3 -36 9 -71 13 -78 9 -19 -1 98 -11 123 -4 11 -5 -8 -2 -45z"/> </g> </svg>